<?xml version="1.0" encoding="utf-8"?>
<!-- Generator: Adobe Illustrator 16.0.0, SVG Export Plug-In . SVG Version: 6.00 Build 0)  -->
<!DOCTYPE svg PUBLIC "-//W3C//DTD SVG 1.1//EN" "http://www.w3.org/Graphics/SVG/1.1/DTD/svg11.dtd" [
	<!ENTITY ns_flows "http://ns.adobe.com/Flows/1.0/">
	<!ENTITY ns_extend "http://ns.adobe.com/Extensibility/1.0/">
	<!ENTITY ns_ai "http://ns.adobe.com/AdobeIllustrator/10.0/">
	<!ENTITY ns_graphs "http://ns.adobe.com/Graphs/1.0/">
	<!ENTITY ns_vars "http://ns.adobe.com/Variables/1.0/">
	<!ENTITY ns_imrep "http://ns.adobe.com/ImageReplacement/1.0/">
	<!ENTITY ns_sfw "http://ns.adobe.com/SaveForWeb/1.0/">
	<!ENTITY ns_custom "http://ns.adobe.com/GenericCustomNamespace/1.0/">
	<!ENTITY ns_adobe_xpath "http://ns.adobe.com/XPath/1.0/">
]>
<svg version="1.1" id="Layer_1" xmlns:x="&ns_extend;" xmlns:i="&ns_ai;" xmlns:graph="&ns_graphs;"
	 xmlns="http://www.w3.org/2000/svg" xmlns:xlink="http://www.w3.org/1999/xlink" xmlns:a="http://ns.adobe.com/AdobeSVGViewerExtensions/3.0/"
	 x="0px" y="0px" width="195.7px" height="84.1px" viewBox="0 0 195.7 84.1" enable-background="new 0 0 195.7 84.1"
	 xml:space="preserve">
<metadata><?xpacket begin="﻿" id="W5M0MpCehiHzreSzNTczkc9d"?>
<x:xmpmeta xmlns:x="adobe:ns:meta/" x:xmptk="Adobe XMP Core 5.3-c011 66.145661, 2012/02/06-14:56:27        ">
   <rdf:RDF xmlns:rdf="http://www.w3.org/1999/02/22-rdf-syntax-ns#">
      <rdf:Description rdf:about=""
            xmlns:dc="http://purl.org/dc/elements/1.1/">
         <dc:format>image/svg+xml</dc:format>
         <dc:title>
            <rdf:Alt>
               <rdf:li xml:lang="x-default">LIFS-logo</rdf:li>
            </rdf:Alt>
         </dc:title>
      </rdf:Description>
      <rdf:Description rdf:about=""
            xmlns:xmp="http://ns.adobe.com/xap/1.0/"
            xmlns:xmpGImg="http://ns.adobe.com/xap/1.0/g/img/">
         <xmp:MetadataDate>2018-11-15T12:40:42+01:00</xmp:MetadataDate>
         <xmp:ModifyDate>2018-11-15T12:40:42+01:00</xmp:ModifyDate>
         <xmp:CreateDate>2018-11-15T12:40:42+01:00</xmp:CreateDate>
         <xmp:CreatorTool>Adobe Illustrator CS6 (Macintosh)</xmp:CreatorTool>
         <xmp:Thumbnails>
            <rdf:Alt>
               <rdf:li rdf:parseType="Resource">
                  <xmpGImg:width>256</xmpGImg:width>
                  <xmpGImg:height>112</xmpGImg:height>
                  <xmpGImg:format>JPEG</xmpGImg:format>
                  <xmpGImg:image>/9j/4AAQSkZJRgABAgEASABIAAD/7QAsUGhvdG9zaG9wIDMuMAA4QklNA+0AAAAAABAASAAAAAEA&#xA;AQBIAAAAAQAB/+4ADkFkb2JlAGTAAAAAAf/bAIQABgQEBAUEBgUFBgkGBQYJCwgGBggLDAoKCwoK&#xA;DBAMDAwMDAwQDA4PEA8ODBMTFBQTExwbGxscHx8fHx8fHx8fHwEHBwcNDA0YEBAYGhURFRofHx8f&#xA;Hx8fHx8fHx8fHx8fHx8fHx8fHx8fHx8fHx8fHx8fHx8fHx8fHx8fHx8fHx8f/8AAEQgAcAEAAwER&#xA;AAIRAQMRAf/EAaIAAAAHAQEBAQEAAAAAAAAAAAQFAwIGAQAHCAkKCwEAAgIDAQEBAQEAAAAAAAAA&#xA;AQACAwQFBgcICQoLEAACAQMDAgQCBgcDBAIGAnMBAgMRBAAFIRIxQVEGE2EicYEUMpGhBxWxQiPB&#xA;UtHhMxZi8CRygvElQzRTkqKyY3PCNUQnk6OzNhdUZHTD0uIIJoMJChgZhJRFRqS0VtNVKBry4/PE&#xA;1OT0ZXWFlaW1xdXl9WZ2hpamtsbW5vY3R1dnd4eXp7fH1+f3OEhYaHiImKi4yNjo+Ck5SVlpeYmZ&#xA;qbnJ2en5KjpKWmp6ipqqusra6voRAAICAQIDBQUEBQYECAMDbQEAAhEDBCESMUEFURNhIgZxgZEy&#xA;obHwFMHR4SNCFVJicvEzJDRDghaSUyWiY7LCB3PSNeJEgxdUkwgJChgZJjZFGidkdFU38qOzwygp&#xA;0+PzhJSktMTU5PRldYWVpbXF1eX1RlZmdoaWprbG1ub2R1dnd4eXp7fH1+f3OEhYaHiImKi4yNjo&#xA;+DlJWWl5iZmpucnZ6fkqOkpaanqKmqq6ytrq+v/aAAwDAQACEQMRAD8Amuq2ptL+5tSKGCV4/wDg&#xA;WIzaQNi3zvPj4Jyj3EvR/wAs7tZfL7QV+O2mdSv+S9GB+8nMPUj1PVdhZLwV/NLLcx3dOxV2KuxV&#xA;IvPl/FYeTNauZDQCzmRa93lUxoPpZhl+ljxZIjzcXWzEcMyf5pfIU/TOvi8IH1h+Vlm9p+XmgxOC&#xA;Ga1WXfwmJlH4PnKa6V5pHze57Pjw4IDyZVmI5jsVdirsVdirsVdirsVdirsVdirsVdirsVdirsVd&#xA;irsVdirsVdirsVdiry78ydLNtrC3qj91erUnwkQBWH3UOZ2mlYrueQ7c0/Bl4+kvvCW+SvMa6Lq/&#xA;780sroCO4/yTX4X/ANj+o5Zmx8UfNx+y9b4GTf6Zc/1vYkdHRXRgyMAVYGoIO4IIzWvbAgiw3il2&#xA;KuxV4j+enneG54eWrCQOkL+pqMimo9Rfsxbfy9W96eGbvszTEes/B5ntrWiX7qPTn+p5NoOhXOva&#xA;9Y6RbA+peTLGWG/FK1dz7IgLZtsuUY4GR6Om0+E5JiA6vsO2t4ba2itoV4QwIsca+CoOKj7hnHyJ&#xA;JsvfRiAKCpgS7FXkPmv89rvQvMV/pCaPHOtlKYhMZ2UtQA148DTrhpUp/wChkr3/AKsUX/SQ3/VP&#xA;Gle428vqwRy0p6iq1PCorgVfirsVeO+Zfz7u9H1/UNKXRo5lsp3gEpnZSwRqVpwNMNKlv/QyV7/1&#xA;Yov+khv+qeNK90wK86/Mr817jybqtrYxacl6LiD1zI0pjIPNlpQK38uFWIf9DJXv/Vii/wCkhv8A&#xA;qnjSu/6GSvf+rFF/0kN/1TxpXf8AQyV7/wBWKL/pIb/qnjSs+/LL8xJvOkGoSy2K2X1Jo1AWQycv&#xA;UDHuq0pxwKzbFXmPnj88tG0O4k0/SYRqmoREpNJy428bDYjkKlyO4G3vhpXm93+fP5gTuWiltrVa&#xA;7JFACP8AkoZDjSFaw/P/AM9W7D6wtpeJ+0JIih+gxsn6saVnflv/AJyC8u30iQa1ayaVK23rqfXg&#xA;r/lEBXWv+qfnjSXqkbpIiyIQyOAysOhB3BwK3irsVSrzNoces6TLamgmHx27ntIOn0HocsxT4Tbh&#xA;6/SDPiMevT3vEruCa3mkgmQxyxMVkRuoYbEZtIm3g5wMSQdiE78tef8AU9DUW0i/W7AdIWNGT/Ub&#xA;enyO3yyvLpxPfkXZaHtbJg9J9UO7u9zPbH8zfKF0o9S6a0kPWOdGFP8AZKGT8cxJaSY6W9Di7Z08&#xA;+Z4ff+KVLv8AMryVaxl21JJD2SJXcn/gVp9+COkyHo2T7W08R9Tzrzl+dF7eQyWegRNZQuCr3khH&#xA;rkf5AUkJ86k/LNjp+zwDc93TaztyUxw4xwjv6/seRXBLEk1LHqe5ObeLog95/Jj8upNDtG13VIuO&#xA;q3qcYIWHxQQHfcHo79/AbeOaPtHV8Z4I/SPtet7I0BxR45fUfsD0/NW7p2KuxV8nfmj/AOTB1z/m&#xA;JP8AxEZJDFsVfalj/vFb/wDGJP8AiIyKVbFXYq+R/wAxf+U717/mOn/4mckhjuKvtrIpfP3/ADkZ&#xA;/wApRpn/ADA/8znwhDybCrsVdir3T/nG3/eLXf8AjLb/APEZMBSyf86fN0/l/wApmGzcx3+qObeK&#xA;RdmSMCsrg+NPhHzriFfMmFCI0/TtQ1G6W0sLaW7uX+zDCjO596KDiqZ6p5I83aVAbjUNIure3UVe&#xA;Zo2KKP8AKZahfpxVNvyo8p/4k8320M0fPT7P/Sr6v2SiH4UP+u9BTwrgKvqnAl2KuxV2KsS87eSU&#xA;1hDe2ICakg+IHZZVHY+DDsfoPtk4M/DseTpu1OyxmHHD6/veQ31tcW07wXEbRTRmjxuKEH5HNlEg&#xA;iw8fOEompCiEum75cGCBm6ZYEoGfLYpZn+UNx5Lh15f02pGplwNNlmINsHOw2ptJX7Jbb5HMXXjK&#xA;Yen6eve7rseWAZPX9XTu/tfQuc+9g7FXYq7FXyd+aP8A5MHXP+Yk/wDERkkMWxV9qWP+8Vv/AMYk&#xA;/wCIjIpVsVdir5H/ADF/5TvXv+Y6f/iZySGO4q+2sil8/f8AORn/AClGmf8AMD/zOfCEPJsKvpj8&#xA;kbW1k/LuwaSFHYyXFWZQT/fN4jAUs8+o2X/LPF/wC/0wKvighir6Uax168QBX7sVeH/85JM31vQV&#xA;r8IjuSB2qWjr+rCFeMYUPY/+cfNe8uWMmo2F5LHbardvGbeWUhRJGoI9NWPcMa8e/wBGApe7kAgg&#xA;ioPUYFS3SfLehaRcXlxplnHaS37K916Q4hmQED4ei9TsO++KplirsVdiqReb/Mg0TTg8YDXk5426&#xA;N02+0x9ly3Dj4j5Ou7S135eFj6jyQPlz8wNN1Irb3vGzvTsAT+6c/wCSx6H2P45PJpzHcbho0XbG&#xA;PL6Z+mf2FN9b8s6LrUYW/tw7r9iZfhkX2DDt7HbK8eWUOTm6nRYs49Y+PVRtvK/lPTEQJY20dWCJ&#xA;JMqu5YnYB5OTEk9q4TmnLqWMNFp8QHpiPf8AtRF55Z8u3iFLnTLaUEUqYk5D5MBUfRgjmmORLbPS&#xA;Ypc4x+Tzzzh+SlrNDJdeXHMM43+oStyjb2R2+JT/AKxI+WbDT9oEbT+bpdZ2HEi8Wx7nh9/bz208&#xA;tvcRtFPExSWJwVZWU0IIObuBBFh5sxMTR5vbvyT/ADFm1aBvLuqymTULVOVlO5q0sK7FGJ6sn4r8&#xA;s0vaWk4Dxx5Hm9V2PrzkHhy+ocvMPV81TvHYq7FXyd+aP/kwdc/5iT/xEZJDFsVfalj/ALxW/wDx&#xA;iT/iIyKVbFXYq+R/zF/5TvXv+Y6f/iZySGO4q+2sil8/f85Gf8pRpn/MD/zOfCEPJsKp7pXnrzdp&#xA;NkljpuqT2tpGSUhjICgsanqO5OKoz/laP5g/9Xy5+9f6Yq9//KPV9S1byNZ32pXD3V3JJMHmk3Yh&#xA;ZWA6eAGRKUq/PDyfd695aivbFDLe6SzyiFRVnhkAEoUd2HBW+jxwhXzZhQ7FWQaF5/8AOOhFRp2q&#xA;zpClKW8jerDTw9OTko+gYq9j8hfnrY6tPFpvmCJLC9kISK7Qn6vIx2AYGpjJ+ZHywUl6vgV2KuxV&#xA;5D551Nr/AMwXABrFbH0Ih/qfaP0tXNjgjUXiO1tR4mc90dvl+1Ffl35dj1DUXv7leVtZEFEPRpTu&#xA;K+y9fuyOoyUKHVyOxdGMk+OX0x+/9jPPMvmO20Sz5sPUupai3h8SO7f5IzEx4zIvQ6/XR08b5yPI&#xA;MI0zSvMXmi9GoTzmKFHqtw32VIPSJPb/ADNcyZSjAU89g0+fWT45Gh3/AKg9PFaCu57nMJ692KvJ&#xA;fz28mRT6aPM1ogW5teMd+FH24mIVHNO6EgfL5ZtuzNRUuA8jydB23owY+KOY5vD9G1m60TWrLVrU&#xA;/vrOZZVH8wB+JT7MtQc3mTGJxMT1eewZTjmJDo+xbO6gvLSC7t25wXEayxP4o6hlP3HOOlEg0ej3&#xA;0ZCQBHIquBk7FXyd+aP/AJMHXP8AmJP/ABEZJDFsVfalj/vFb/8AGJP+IjIpVsVdir5H/MX/AJTv&#xA;Xv8AmOn/AOJnJIY7ir7ayKXz9/zkZ/ylGmf8wP8AzOfCEPJsKsn0P8s/O2u6bHqWlab9YspSypL6&#xA;1ulSjFW+GSRW6jwxVH/8qW/Mz/qzf9PNr/1VwWr3b8qtB1XQvJVppuqwfV72J5meLmj0Dysy/FGW&#xA;XofHAUsuxVgHnD8l/KvmGaS8g5aXqMlWea3AMbsf2niNAT48Ste+G1eUeYPyL87aWHls0j1W3Xet&#xA;saS094noSfZS2NoefTwT28zwTxtFNGSskTgqysOoZTuDhVZir6k/J7zHca75HtZbpzLdWTtZzStu&#xA;WMQBQk+PputTkSlm2KuxV4LcSNJK8jfadizfMmubUPnEpWSXqv5d26ReVrd16zvLI/zDlP1IMwdQ&#xA;fW9l2LADTg95P31+hIr3y7resebGOowvFZkkiQGqCBD8Kqw25N/EnLBkjGG3N1uXRZs+p/eCo/oD&#xA;P4IIYIUhhQRxRgKiKKAAdhmKTb0sICIobAL8DJ2Kpd5jsY9Q8v6lZSAFbm2mj38WQgH6DlmGXDMH&#xA;uLTqIceOUe8F8bT9M7KLwAfV/wCVV291+XegyvUlbYRCvhCxiH4JnKa6NZpe97ns+V4Ie5leYjmO&#xA;xV8nfmj/AOTB1z/mJP8AxEZJDFsVfY1lrmiiytwdQtgRGlR60f8AKPfIpV/05on/AFcLb/kdH/XF&#xA;UVDNDNGssMiyxN9l0IZT22I2xV8lfmL/AMp3r3/MdP8A8TOSQx3FX21kUvn7/nIz/lKNM/5gf+Zz&#xA;4Qh5NhV9O/kd/wCS5sP+Mtx/yebAUs9wK7FUl84+Zbby35cvdXmozQJSCI/7smbaNPHduvtXFUi8&#xA;i/mx5d8zwRwyyJYavQCSylYAO3jCxoHHt1/XjSs3xV85fn/Po8vnGEWRRryO2VNRaOn94GPEPT9s&#xA;JSte1MIQ8ywq+h/+cd4JU8nXsrVCS37+mO1FijBI+nb6MBS9TwK7FXhOo2zWt5PbNs0MjRmv+SSM&#xA;2sTYt86zY+CZj3GnpX5aX6T+X/qtR6lnIyle/GQl1P0kn7swtTGpX3vWdh5hLBw9Yn792WZju5di&#xA;rsVdiqVebNSTTPLOqX7tx+r2srL7vwIQfSxAy3BDimB5tGqycGKUu4F8dT9M7GLwIfWf5Y2L2P5f&#xA;6FA4KsbRJSD1HrVl/wCN85PWy4s0j5vdaCHDggPL72T5iuW7FXyd+aP/AJMHXP8AmJP/ABEZJDFs&#xA;VdirsVfVX5Rf+S50X/jFJ/yefIlL53/MX/lO9e/5jp/+JnJIY7ir7ayKXz9/zkZ/ylGmf8wP/M58&#xA;IQ8mwq+nfyO/8lzYf8Zbj/k82ApZ7gV2Kvnv8/8AzXNe69F5fiDJaaYBJLUECSeRQa79QiGgPucI&#xA;Q8pwqmUXmfzLDb/VotWvY7alPQS4lVKDtxDUxVLSSSSTUnck4qiNO0+91G+gsbKFp7u4cRwxJuWY&#xA;/wCe5xV9b+S/LUflvyzY6OhDvbpWeRejyuS0jb9uR29silO8Vdiry/8AMjSDa6qt8i/ubwVYjoJV&#xA;FGH0ih+/M7TTsV3PI9t6bgy8Y5S+9KfJvmBtG1pHerWtzSK4QAk0J+FgB3U/hXLc2Pii4nZms8DL&#xA;Z+mWxezA1Fc1j3LsVdirsVeJ/nn55huEHljT5OaxuJNSkU1Xkn2IduvE/E3vT3zddmaYj1n4PNdt&#xA;a4H91H4/qeV+VfLdx5j8yWOkQg8biUfWHX9iFTWV/oUGnvtm2z5hjgZHo6fSYDlyCA6/c+vooo4o&#xA;kiiUJHGoVEHQKooAM5Am3vAKFLsCXYq8h81/kTd675iv9XTWI4FvZTKITAzFagCnLmK9MNqlP/Qt&#xA;t7/1fYv+kdv+qmNq7/oW29/6vsX/AEjt/wBVMbV3/Qtt7/1fYv8ApHb/AKqY2r1vyd5ffy95asdG&#xA;eYXDWaspmC8A3J2f7JJp9rxwK888xfkF+mdev9V/TvofXp3n9H6pz4czXjy9Za0+WG1S7/oWr/v4&#xA;/wDpy/6/42r23Arz78xvyn/xnqltf/pX6h9Xg9D0/q/rcvjZ+VfUjp9rww2rE/8AoWr/AL+P/py/&#xA;6/42r0/yN5V/wt5ct9G+tfXPQaRvX9P0q+o5f7PJ+lfHAqfYq7FUm8y+T/LvmS2EGsWaXHEERTfZ&#xA;ljr/ACSLRh8umKvKdb/5xxl5s+h6spQ/YgvUII+csQNf+Aw2rHJPyC8/I4VRZyD+dZjT/hlU/hja&#xA;Ey0v/nHTzJLKP0lqVraw9/R5zyfcREv/AA2Nper+S/y38teU0L2ETTXzikl9PRpSD+ytAAi+wHzr&#xA;gVlOKuxV2KoDXdHt9X02Wym257xyUqUcfZYZOEzE242r00c2MwP9hQPl7ydpOjASIvr3lPiuZAKj&#xA;x4D9kfj75LJmMvc4+j7Mx4NxvLvP6O5T8y+eNG0L91IxuLz/AJZYiKgeLnov68liwSn7l1vaeLBs&#xA;d5dw/ShLP80PKFwlZbl7R+8c0bV+9A6/jkpaTIOltWLtrTyG54feP1L738zvJVqhJ1ATMOiQxyOT&#xA;8jx4/jjHSZD0bJ9r6eP8V+63nfnH859QvoXs9Ciawgeoe7cj1yD/ACgVEfzBJ8CM2Gn7PANy3dNr&#xA;O3JTHDjHCO/r+x5O0U9xMsUSNLPKwVEUFmZmNAABuSTm2BADpIgk0Ob6F/KX8uf8Lac97qCg63fK&#xA;BMBQ+jFWoiB8a7vTv8q5oNfq/FND6Q9j2XoPBjcvrP2eT0DNe7V2KuxVLdK8wWGqXupWdsHEulTC&#xA;3ueYABcry+EgmopiqT/8rG0g+YZNCisr+e5huUtJp4rfnAjuQAXkDfCo5VJI6Yqu1D8yfKthr40O&#xA;4nkF2JI4ZZRGxgilm3jSSTopb/bxVM9a8zaVo95plpesyzatcC1tAorWQ/zbigqQPpxVfP5gsINf&#xA;tdCcP9dvIZLiIgDhwiNGq1a1+jFUyxVjV3+YGg2vl+712UT/AFGyums5qIC/qJL6RIXluvL3xVFr&#xA;5t0h5tXjjLv+hreK6unUAq0U8TSoYzX4vhQ+GKoPy15/0rzB6r21pe21vFCbj61dwGKFoxTdHqwb&#xA;rX5Yq35a/MTyz5jv5LHTZZfrCRmaMTRNEJYg3AyRcvtLy2xVCaV+anlfUdYj0pFureeaZ7e3lnhK&#xA;wySxkhkSQFhXbFUztvOuh3F1rdsHeOTy+OWocwAAnFnLJueQAQ4q6Hzno0vlI+ah6i6WIXnoygS8&#xA;UYrTjWlSRtviqD138xtD0bR9P1i4gu5tP1GITxT28XqLGjBCvqnkAhb1QBv1xVE2/nbTJjoyvb3V&#xA;vLrrzR2kM8XpyKbevL1VJqtQtV61xVBT/mf5Zg8zHy+/1j1xOlo94Iq2q3En2YWkBqGP+rT3xVW1&#xA;f8x/Kuk64NFvLh1ux6frssbNFD6xAj9VxsvLkPvxVk+KpVpXmbS9U1TVNMtGY3OkSJFdhgAvKQEj&#xA;iQTX7JB98VSq2/Mry3c28M8XrETaomihOC8lunrxLDl9jb7WKqWrfml5X0nXrjRr8XMUto0S3N2I&#xA;i1vGZ0V05upJAIbuMVZfirBvPPnr6lz03S3Bu/s3FwNxH/kr/l/q+fTLwYL3PJ0Havavh3jxn1dT&#xA;3ft+55VcO7uzuxZ2NWZjUknuSc2IeTJJNlAzd8tCEDN0ywJQM+WxSzf8ovMXlDSdWKavbiLUJ242&#xA;mqSHlHHXbgQf7uv8/wB9BmJr8OScfSdu53fY+ow45+seo8pfjl730DmgevdirsVdirCfIP8Ayk3n&#xA;T/tpJ/yaGKpV5Qt/MT+ffM8tjdwQ6WmpL9ft5Iy0sn7oU4P+zhVJPMGrz6XqfmuaGLT7pP0tYiay&#xA;vUaRnLxRiNolR0oytyapr0xVR/OrUnk8026wrNJJoFkt9A0SM6pcyXKMfVKg8F9GKtT7YhWYXV1F&#xA;d/mj5buoTWK40m4ljPirlWH4HArPMVeLa3GJfyo12ImgfXplJ+d8BhVZ+Xjaiunef7PUf97NNsIb&#xA;CQ+ItYbmFD/wKjFWQeUYfNQ/LKc6jLaSaW+iv+jordZBOoMDUEpb4SePhiqF8hz20mveUFikR3Ty&#xA;24kCkEj97GKNT3BxVjvlKO6n8xeXrbUJETSP0vqVxYGNSJDdwNy4SuTTi1RxoPbFCXeYtO8wXPnb&#xA;zOuk8vR1G8XSr9gCQkU3GbmadBSBqnw+eKp9NfQx/kn5b06USNFq11FazpCpeUwi5eWTgq/ETSOm&#xA;3jilq4v2uf8AnHu/tpOXr6ZKljMHBVgYr6IqGU7qQjKKHFWbedf+U58j/wDMTef9Q4wKlXlXUvL1&#xA;lqXmgawYv33mQxWyyRmU+vIB6NFCuQahqN28cKpd+YKW2l6v5h13Tbu1vWWKzHmXy9fRFkkSqJA0&#xA;b0G9KdO/3Yq9XW4j+qi5c8IvT9Ri3ZacjX5DArxb8ptY5eeGu3WeM+Zre7nm9ZGVGuY7p5V9Jz8L&#xA;hYG349DhKsW0uK/tPM2jbltP1bzHDNU/sz2V28RA/wBhcA4oZF+YTot9+ZoZgC0eihQT1NYTQfQM&#xA;UvU/O3mI6PpfGBqXt1VIPFR+0/0V298tw4+I+Tq+1db4GPb65cv1vHJmLMWY1YmpJ6k5sw8SSzPy&#xA;t+Wcl9Gl7rBaC3ajR2q7SMOoLn9ke3X5ZjZdVW0XfaDsQzHFl2Hd1/Yz6x8reXbFAltp0C025sgd&#xA;z83bkx+/MOWaZ5l6LFosMBUYj5L7vy55fu4/TudNtpV/yokqPkaVH0YxyyHIllPS4pCjGJ+Dzrzl&#xA;+SttJBJd+W2MU6gsdPkYsj07Ru26n2Yke4zYaftAg1P5ul1nYca4sXPu/U8PvoJoJpIJkaOaJikk&#xA;bghlZTQgg9CDm8gQdw82YkGjze0/kd+YMl/EfK+pScrq2QtpszHd4V+1EfdBuv8Ak/LNN2lpOH95&#xA;Hkeb1HY2uMh4UuY5e7ueu5qHfOxV2KsHudO/KY+bBPcPZf4l+tRsA07Cb60GX0/g505cqUFMVVb3&#xA;RPyuTzfFLdi0TzPJNHcRK87LMZgQ0Z4c6ciQKCm+Kr9dt/yvTzNFea21hHr0fpsjXEgR9v7tmUsF&#xA;NOxYfqxVGay/kXS7i9m1ee1tZtehEN21xLxM8MaenxHJtlCvT4aYqg77y7+Wmrro1pdx21yGt/T0&#xA;SIzPV7eNQaRUcFwqjFU5tNY8r2GgRXNve28OiWirbxT+oPSVYv3YTmTuRx4+OKpfLbeQJPK000j2&#xA;zeXJ5/rc0/qn0DM8wPMyBtj6tNq9dsVb1h/Iehz3r6pLb2E3mICK8MkjIZ1RTHvQ/CArkFhTrucV&#xA;TvTLDT7PTLexsUUafDEsdugYyL6QFFHJixYU8TirH/Ltj+W+ka9dWWh/UrfW5AVuLeKQGagPJkCl&#xA;jxpSpVfD2xVbLF+W9jqdloUslrBqMN0L6ztGlZXW5kNQ1eX2nrshO/hiqa2dr5YtdV1SK19JNSu1&#xA;W41WMOS5UgqrupJ4ihPTFUp0Z/y1vG0+y0m4s7htFEk9hBDMXMIP23pyNftftVxVVFp+X2o2Elor&#xA;21xZeZbh52jSYlbqeJgzsvFvtKYxy4+GKoi81PyVd+ZrOxuru2fX9PZns4GkpJG8q0YAAgFiv7J3&#xA;piqW39v+Vlr5v+v3z2MXmZGSvqS0kEjKDG3pFuHMgijca4qmmteQvKGt6lFqWqabHc3sIAWVmdah&#xA;TUB1VlV6f5QOKp3c20NzbS20y8oJkaORKkVRhxIqKEbHFUvh8saDD+jPSs1T9Dh102hYeiJF4PTf&#xA;fkvXlXFVFfJflhUtUFgnGyujf2vxPVLktyMgPKv2t6dMVUdQ8geTtR1dtYvtLiuNRZkd55C5qY1C&#xA;pVOXA0CgdMVef+eNTa/8wXJBrFbH0Ih2oho33tXNjgjUXh+1c/iZz3R2+X7UT+Xnl+PUtVa8uUD2&#xA;tjRgp6NKfsA+wpX7sGoycIodW/sbRjLk4pfTH73q+a97F2KuxV2KvG/z68nxfV4/M9pHxcMsGohR&#xA;sQdo5T71+A/Rm47L1G/Afg8523pBQyj3H9BeM6PrNzoutWWrWxpNZTLKo6cgp+JT7MtVObqeMTiY&#xA;nq6LBlOOYkOhfY1rcw3VtDcwtyhnRZI28VccgfuOcdIEGi9/GQIsKmBLsVeV+WVu2/MTzEE8vQ6l&#xA;bfpNDLq0kkKvaERggpG6mRtxX4ThVIfMVpaveeZr14ka8i8xaekVyVBkVdhxVjuB8sULPzQufR86&#xA;eYVawjvIrjSre3e4lZVW1MsqIlwaqx+FyB8O+Kp75usb2w8yeSbGDTI/MdzaafcQfU5pI4lmMcUa&#xA;ly8wZNqctxilA/mxLqNjrHlG/sbRbS60y2mvWsYyvGNYPSkliBQBSqqGBpsRiFW6NoM3mL8pNLSz&#xA;kgW4h1WS8tre7IWK4ZZpQIG/1w/TFVutXljN+Ufm2GDT20q7t9RRdR04yCSOK4NzBz9EqABGabAb&#xA;dfnirIfMFhp2ofm6tnqiJJYP5ck9VZaBVVriRWcE/ZPH9rtirP8ASreyttLs7awIaxggjjtGVuYM&#xA;SIFjIep5fCBv3wK8mttKg8t+brcanaRXtlqWvNNpeu2kqi4iuZxxFtOtOTJv8QrTqfbCqP0bSPL2&#xA;qeaPO514RiKHUbRo7mRxEyMit6YWWqkbgClcVTe3/wDJneZv+2Rb/wDG2KpR+UK3Z8pxtL5ehtLd&#xA;bOb0NdWSFpbkmRqoY1USr/sj2xKsD/LO8vo/MflPSblT6K3Fxf2T9jHcQNGwHsHgP01xQz3yVpGg&#xA;X+qeY7nVlj+sWnmqWSxndxG/rxv+5RWqC252Tv4Ypatlu3/NzzMkXl6HWYGl0oXN5NJChskNuB6i&#xA;pKrM9RVqJv8AD8sVeqYFdirsVdirsVeKT6F5hkkeRtNuizksx9CTqd/5c2YnHvDwMtJnJvgl/pS9&#xA;G/L7Tp7Hy/xuIXgnlmeR0kUqw6KKhgD0XMPUSuWz1PY2A48PqFEk82S5Q7V2KuxV2KpF5605tR8m&#xA;6zZpE00r2krQxIpdmkRS8aqo3JLqKUy/TT4ckT5uLrcfHhkOfpL5dn8jedT08v6kf+jOf/mjOojq&#xA;cX86PzDxo0eb+ZL/AEpfT/5fJex+SNEivoZLe6hs4oZYZlKSKYl4AMrAEGi985jV14siNxb2eiBG&#xA;GIIo0yDMdyXYqlOjeXLXSr/Vb2GV5JNWnFzMr0orBeNFoBt88VSjUPyy8v32vNrEs12vqzxXVzp8&#xA;c3G0mngFEkkj4kkj2YYqq6v+X2k6rqOrX1zNLz1exGnzRjjxRVIZXSoryDKDvtiqjrH5eR6kdHkG&#xA;r31neaPbtbQ3luyJK4ZVVmc8epCb0xVFy+SbK4u9Kur26nvJNMtZ7MmYq3rpcx+nI0xpUkjwxVBR&#xA;fljosfk+HywLm59C1m+tWl6rqlxFMHLq6soAqvIjpirQ/LHSP8J6j5de8upRqs4ur7UJGV7iSUSJ&#xA;JyJI4/7rA6Yqr+bvy70vzLfQ3s15d2NykD2kz2kgT1raQktFJUNVdz9+KsksbO3sbK3srZeFtaxp&#xA;DCnXikahVH0AYqxNfys0JfMS6wLm79FLw6kml+oPqi3h6zBKVBqK9fw2xVvUvyu0O/8AMUmsy3N2&#xA;qXEsNxeaakgFrNLbikbOlKmnzxVOE8sWieYL/WxLJ9Y1C2S0lj+HgqR1oV2rXfFUq8rfl6vl5fRh&#xA;1q/urEQvBHYTuhgQSGpZVVRQjf78VW6d+WGiWFx5fuYp5jP5eSWO3kPCsqSlmpLRf2TI1KU64q1/&#xA;yq7Q/wDEx1z6zd8DdjUjpvqD6r9cXpNwpXlU16/htiq+8/L1ZvMt3r9rrV/YTXzQNdW9s6JE/wBW&#xA;QRorDjUig8e5xVl2KuxV2KuxV2Kv/9k=</xmpGImg:image>
               </rdf:li>
            </rdf:Alt>
         </xmp:Thumbnails>
      </rdf:Description>
      <rdf:Description rdf:about=""
            xmlns:xmpMM="http://ns.adobe.com/xap/1.0/mm/"
            xmlns:stRef="http://ns.adobe.com/xap/1.0/sType/ResourceRef#"
            xmlns:stEvt="http://ns.adobe.com/xap/1.0/sType/ResourceEvent#">
         <xmpMM:InstanceID>xmp.iid:F77F117407206811822AAAC75925BEEB</xmpMM:InstanceID>
         <xmpMM:DocumentID>xmp.did:F77F117407206811822AAAC75925BEEB</xmpMM:DocumentID>
         <xmpMM:OriginalDocumentID>uuid:5D20892493BFDB11914A8590D31508C8</xmpMM:OriginalDocumentID>
         <xmpMM:RenditionClass>proof:pdf</xmpMM:RenditionClass>
         <xmpMM:DerivedFrom rdf:parseType="Resource">
            <stRef:instanceID>uuid:9e84dc60-4cbb-8c41-9706-e5c0b63f169f</stRef:instanceID>
            <stRef:documentID>xmp.did:0180117407206811822AC2FCF0AD514A</stRef:documentID>
            <stRef:originalDocumentID>uuid:5D20892493BFDB11914A8590D31508C8</stRef:originalDocumentID>
            <stRef:renditionClass>proof:pdf</stRef:renditionClass>
         </xmpMM:DerivedFrom>
         <xmpMM:History>
            <rdf:Seq>
               <rdf:li rdf:parseType="Resource">
                  <stEvt:action>saved</stEvt:action>
                  <stEvt:instanceID>xmp.iid:0180117407206811822AC2FCF0AD514A</stEvt:instanceID>
                  <stEvt:when>2018-11-13T21:25:57+01:00</stEvt:when>
                  <stEvt:softwareAgent>Adobe Illustrator CS6 (Macintosh)</stEvt:softwareAgent>
                  <stEvt:changed>/</stEvt:changed>
               </rdf:li>
               <rdf:li rdf:parseType="Resource">
                  <stEvt:action>saved</stEvt:action>
                  <stEvt:instanceID>xmp.iid:F77F117407206811822AAAC75925BEEB</stEvt:instanceID>
                  <stEvt:when>2018-11-15T12:40:42+01:00</stEvt:when>
                  <stEvt:softwareAgent>Adobe Illustrator CS6 (Macintosh)</stEvt:softwareAgent>
                  <stEvt:changed>/</stEvt:changed>
               </rdf:li>
            </rdf:Seq>
         </xmpMM:History>
      </rdf:Description>
      <rdf:Description rdf:about=""
            xmlns:illustrator="http://ns.adobe.com/illustrator/1.0/">
         <illustrator:StartupProfile>Print</illustrator:StartupProfile>
      </rdf:Description>
      <rdf:Description rdf:about=""
            xmlns:xmpTPg="http://ns.adobe.com/xap/1.0/t/pg/"
            xmlns:stDim="http://ns.adobe.com/xap/1.0/sType/Dimensions#"
            xmlns:xmpG="http://ns.adobe.com/xap/1.0/g/">
         <xmpTPg:HasVisibleOverprint>False</xmpTPg:HasVisibleOverprint>
         <xmpTPg:HasVisibleTransparency>True</xmpTPg:HasVisibleTransparency>
         <xmpTPg:NPages>1</xmpTPg:NPages>
         <xmpTPg:MaxPageSize rdf:parseType="Resource">
            <stDim:w>69.038508</stDim:w>
            <stDim:h>29.668473</stDim:h>
            <stDim:unit>Millimeters</stDim:unit>
         </xmpTPg:MaxPageSize>
         <xmpTPg:PlateNames>
            <rdf:Seq>
               <rdf:li>Cyan</rdf:li>
               <rdf:li>Magenta</rdf:li>
               <rdf:li>Yellow</rdf:li>
               <rdf:li>Black</rdf:li>
            </rdf:Seq>
         </xmpTPg:PlateNames>
         <xmpTPg:SwatchGroups>
            <rdf:Seq>
               <rdf:li rdf:parseType="Resource">
                  <xmpG:groupName>Default Swatch Group</xmpG:groupName>
                  <xmpG:groupType>0</xmpG:groupType>
               </rdf:li>
            </rdf:Seq>
         </xmpTPg:SwatchGroups>
      </rdf:Description>
      <rdf:Description rdf:about=""
            xmlns:pdf="http://ns.adobe.com/pdf/1.3/">
         <pdf:Producer>Adobe PDF library 10.01</pdf:Producer>
      </rdf:Description>
   </rdf:RDF>
</x:xmpmeta>
                                                                                                    
                                                                                                    
                                                                                                    
                                                                                                    
                                                                                                    
                                                                                                    
                                                                                                    
                                                                                                    
                                                                                                    
                                                                                                    
                                                                                                    
                                                                                                    
                                                                                                    
                                                                                                    
                                                                                                    
                                                                                                    
                                                                                                    
                                                                                                    
                                                                                                    
                                                                                                    
                           
<?xpacket end="w"?>
	</metadata>
<g>
	<g>
		
			<linearGradient id="SVGID_1_" gradientUnits="userSpaceOnUse" x1="-24.2568" y1="33.4094" x2="25.5552" y2="33.4094" gradientTransform="matrix(1 0 0 -1 24.9448 75.4595)">
			<stop  offset="0" style="stop-color:#00B4AB;stop-opacity:0.7"/>
			<stop  offset="0.1301" style="stop-color:#00B0AC;stop-opacity:0.739"/>
			<stop  offset="0.3096" style="stop-color:#00A6AF;stop-opacity:0.7929"/>
			<stop  offset="0.5178" style="stop-color:#0096B1;stop-opacity:0.8553"/>
			<stop  offset="0.7476" style="stop-color:#0081B2;stop-opacity:0.9243"/>
			<stop  offset="0.9925" style="stop-color:#0067B2;stop-opacity:0.9977"/>
			<stop  offset="1" style="stop-color:#0066B3"/>
			<a:midPointStop  offset="0" style="stop-color:#00B4AB;stop-opacity:0.7"/>
			<a:midPointStop  offset="0.5" style="stop-color:#00B4AB;stop-opacity:0.7"/>
			<a:midPointStop  offset="0.1301" style="stop-color:#00B0AC;stop-opacity:0.739"/>
			<a:midPointStop  offset="0.5" style="stop-color:#00B0AC;stop-opacity:0.739"/>
			<a:midPointStop  offset="0.3096" style="stop-color:#00A6AF;stop-opacity:0.7929"/>
			<a:midPointStop  offset="0.5" style="stop-color:#00A6AF;stop-opacity:0.7929"/>
			<a:midPointStop  offset="0.5178" style="stop-color:#0096B1;stop-opacity:0.8553"/>
			<a:midPointStop  offset="0.5" style="stop-color:#0096B1;stop-opacity:0.8553"/>
			<a:midPointStop  offset="0.7476" style="stop-color:#0081B2;stop-opacity:0.9243"/>
			<a:midPointStop  offset="0.5" style="stop-color:#0081B2;stop-opacity:0.9243"/>
			<a:midPointStop  offset="0.9925" style="stop-color:#0067B2;stop-opacity:0.9977"/>
			<a:midPointStop  offset="0.5" style="stop-color:#0067B2;stop-opacity:0.9977"/>
			<a:midPointStop  offset="1" style="stop-color:#0066B3"/>
		</linearGradient>
		<path fill="url(#SVGID_1_)" d="M50.5,42.1c0-8.8-4.6-16.6-11.6-21c7-4.4,11.6-12.2,11.6-21h-7.7c0,9.5-7.7,17.1-17.1,17.1
			C16.1,17.1,8.4,9.5,8.4,0H0.7c0,0,1.2,18.3,17.6,26.2c2.2-1,4.7-1.6,7.3-1.6c9.7,0,17.5,7.8,17.5,17.5s-7.8,17.5-17.5,17.5
			c-2.6,0-5.1-0.6-7.4-1.6C-0.4,68.9,0.7,84.1,0.7,84.1h7.7c0-9.5,7.7-17.1,17.1-17.1c9.5,0,17.1,7.7,17.1,17.1h7.7
			c0-8.8-4.6-16.6-11.6-21C45.8,58.7,50.5,50.9,50.5,42.1z"/>
		
			<linearGradient id="SVGID_2_" gradientUnits="userSpaceOnUse" x1="-24.2446" y1="33.4094" x2="26.7292" y2="33.4094" gradientTransform="matrix(1 0 0 -1 24.9448 75.4595)">
			<stop  offset="0" style="stop-color:#00B4AB;stop-opacity:0.7"/>
			<stop  offset="0.1301" style="stop-color:#00B0AC;stop-opacity:0.739"/>
			<stop  offset="0.3096" style="stop-color:#00A6AF;stop-opacity:0.7929"/>
			<stop  offset="0.5178" style="stop-color:#0096B1;stop-opacity:0.8553"/>
			<stop  offset="0.7476" style="stop-color:#0081B2;stop-opacity:0.9243"/>
			<stop  offset="0.9925" style="stop-color:#0067B2;stop-opacity:0.9977"/>
			<stop  offset="1" style="stop-color:#0066B3"/>
			<a:midPointStop  offset="0" style="stop-color:#00B4AB;stop-opacity:0.7"/>
			<a:midPointStop  offset="0.5" style="stop-color:#00B4AB;stop-opacity:0.7"/>
			<a:midPointStop  offset="0.1301" style="stop-color:#00B0AC;stop-opacity:0.739"/>
			<a:midPointStop  offset="0.5" style="stop-color:#00B0AC;stop-opacity:0.739"/>
			<a:midPointStop  offset="0.3096" style="stop-color:#00A6AF;stop-opacity:0.7929"/>
			<a:midPointStop  offset="0.5" style="stop-color:#00A6AF;stop-opacity:0.7929"/>
			<a:midPointStop  offset="0.5178" style="stop-color:#0096B1;stop-opacity:0.8553"/>
			<a:midPointStop  offset="0.5" style="stop-color:#0096B1;stop-opacity:0.8553"/>
			<a:midPointStop  offset="0.7476" style="stop-color:#0081B2;stop-opacity:0.9243"/>
			<a:midPointStop  offset="0.5" style="stop-color:#0081B2;stop-opacity:0.9243"/>
			<a:midPointStop  offset="0.9925" style="stop-color:#0067B2;stop-opacity:0.9977"/>
			<a:midPointStop  offset="0.5" style="stop-color:#0067B2;stop-opacity:0.9977"/>
			<a:midPointStop  offset="1" style="stop-color:#0066B3"/>
		</linearGradient>
		<path fill="url(#SVGID_2_)" d="M12.6,30.3l-6.3-4C2.8,30.6,0.7,36.1,0.7,42c0,5.5,2.8,11.7,5.9,15.8l6.3-3.9
			c-2.4-3-4.8-7.8-4.8-11.9C8.1,37.5,9.8,33.4,12.6,30.3z"/>
	</g>
	<path opacity="0.7" fill="#00B4AB" enable-background="new    " d="M16.4,41.8l-3.2-1.4c3.7-8.2,10.5-10.6,10.8-10.7l1.1,3.3
		C24.8,33.1,19.4,35.1,16.4,41.8z"/>
	<g>
		<path fill="#5A5B5E" d="M79.8,9.1v33.2h13.3v9.4H68.8V9.1H79.8z"/>
		<path fill="#5A5B5E" d="M109.8,9.1v42.5h-11V9.1H109.8z"/>
		<path fill="#5A5B5E" d="M143.1,18.4h-13.3v7.1h12.1v9.4h-12.1v16.7h-11.1V9.1h24.4V18.4z"/>
		<path fill="#5A5B5E" d="M173,19.9c-1.2-1-2.4-1.7-3.6-2.2S167,17,165.9,17c-1.4,0-2.6,0.3-3.5,1s-1.4,1.6-1.4,2.7
			c0,0.8,0.2,1.4,0.7,1.9s1,0.9,1.8,1.3c0.7,0.4,1.6,0.7,2.5,0.9c0.9,0.3,1.8,0.5,2.7,0.8c3.6,1.2,6.3,2.8,7.9,4.8
			c1.7,2,2.5,4.6,2.5,7.9c0,2.2-0.4,4.2-1.1,5.9c-0.7,1.7-1.8,3.3-3.2,4.5c-1.4,1.3-3.1,2.2-5.2,2.9c-2,0.7-4.4,1-7,1
			c-5.4,0-10.4-1.6-14.9-4.8l4.7-8.9c1.7,1.5,3.3,2.6,4.9,3.3c1.6,0.7,3.2,1.1,4.8,1.1c1.8,0,3.1-0.4,4-1.2s1.3-1.8,1.3-2.8
			c0-0.6-0.1-1.2-0.3-1.7c-0.2-0.5-0.6-0.9-1.1-1.3s-1.2-0.8-2.1-1.1c-0.8-0.3-1.9-0.7-3.1-1.1c-1.4-0.5-2.8-0.9-4.2-1.5
			c-1.4-0.5-2.6-1.3-3.7-2.2c-1.1-0.9-1.9-2-2.6-3.4c-0.7-1.4-1-3.1-1-5.2s0.3-4,1-5.7c0.7-1.7,1.7-3.2,2.9-4.4
			c1.3-1.2,2.8-2.2,4.6-2.8c1.8-0.7,3.9-1,6.1-1c2.1,0,4.3,0.3,6.6,0.9c2.3,0.6,4.5,1.4,6.6,2.6L173,19.9z"/>
	</g>
	<g>
		<path fill="#5A5B5E" d="M68.7,68.1v-9.3H70v8h2.7v1.3H68.7z"/>
		<path fill="#5A5B5E" d="M74.8,68.1v-9.3h4v1.3h-2.7v2.7h2.3v1.3h-2.3v2.7h2.7v1.3H74.8z"/>
		<path fill="#5A5B5E" d="M80.9,61c0-0.4,0.1-0.7,0.2-1s0.3-0.5,0.5-0.7c0.2-0.2,0.4-0.3,0.7-0.4c0.3-0.1,0.5-0.1,0.8-0.1
			c0.3,0,0.5,0,0.8,0.1c0.3,0.1,0.5,0.2,0.7,0.4c0.2,0.2,0.4,0.4,0.5,0.7s0.2,0.6,0.2,1v0.5H84V61c0-0.3-0.1-0.6-0.3-0.7
			c-0.2-0.2-0.4-0.2-0.6-0.2c-0.2,0-0.5,0.1-0.6,0.2c-0.2,0.2-0.3,0.4-0.3,0.7v4.9c0,0.3,0.1,0.6,0.3,0.7c0.2,0.2,0.4,0.2,0.6,0.2
			c0.2,0,0.5-0.1,0.6-0.2c0.2-0.2,0.3-0.4,0.3-0.7v-1.8h-1V63h2.4v2.9c0,0.4-0.1,0.7-0.2,1c-0.1,0.3-0.3,0.5-0.5,0.7
			c-0.2,0.2-0.5,0.3-0.7,0.4c-0.2,0.1-0.5,0.1-0.8,0.1c-0.3,0-0.5,0-0.8-0.1c-0.3-0.1-0.5-0.2-0.7-0.4c-0.2-0.2-0.4-0.4-0.5-0.7
			c-0.1-0.3-0.2-0.6-0.2-1V61H80.9z"/>
		<path fill="#5A5B5E" d="M87.3,68.1l2.1-9.3h1.1l2.1,9.3h-1.3l-0.4-2H89l-0.4,2H87.3z M90.6,64.9L90,61.5l0,0l-0.7,3.4H90.6z"/>
		<path fill="#5A5B5E" d="M94.6,68.1v-9.3h1.3v8h2.7v1.3H94.6z"/>
		<path fill="#5A5B5E" d="M104.5,68.1v-9.3h1.3v9.3H104.5z"/>
		<path fill="#5A5B5E" d="M108.4,68.1v-9.3h1.3l2,5.6l0,0v-5.6h1.3v9.3h-1.3l-2-5.6l0,0v5.6H108.4z"/>
		<path fill="#5A5B5E" d="M115.6,68.1v-9.3h4v1.3H117v2.8h2.3v1.3H117v4h-1.4V68.1z"/>
		<path fill="#5A5B5E" d="M121.7,61c0-0.4,0.1-0.7,0.2-1s0.3-0.5,0.5-0.7s0.4-0.3,0.7-0.4c0.3-0.1,0.5-0.1,0.8-0.1s0.5,0,0.8,0.1
			c0.3,0.1,0.5,0.2,0.7,0.4s0.4,0.4,0.5,0.7s0.2,0.6,0.2,1v4.9c0,0.4-0.1,0.7-0.2,1c-0.1,0.3-0.3,0.5-0.5,0.7s-0.5,0.3-0.7,0.4
			c-0.2,0.1-0.5,0.1-0.8,0.1s-0.5,0-0.8-0.1c-0.3-0.1-0.5-0.2-0.7-0.4s-0.4-0.4-0.5-0.7c-0.1-0.3-0.2-0.6-0.2-1V61z M123,65.9
			c0,0.3,0.1,0.6,0.3,0.7c0.2,0.2,0.4,0.2,0.6,0.2s0.5-0.1,0.6-0.2c0.2-0.2,0.3-0.4,0.3-0.7V61c0-0.3-0.1-0.6-0.3-0.7
			c-0.2-0.2-0.4-0.2-0.6-0.2s-0.5,0.1-0.6,0.2c-0.2,0.2-0.3,0.4-0.3,0.7V65.9z"/>
		<path fill="#5A5B5E" d="M128.7,68.1v-9.3h2.2c1.6,0,2.4,0.9,2.4,2.7c0,0.6-0.1,1-0.3,1.4c-0.2,0.4-0.5,0.7-0.9,0.9l1.4,4.3h-1.4
			l-1.2-4H130v4H128.7z M130,60.1V63h0.8c0.2,0,0.4,0,0.6-0.1c0.1-0.1,0.2-0.2,0.3-0.3c0.1-0.1,0.1-0.3,0.1-0.5s0-0.4,0-0.6
			s0-0.4,0-0.6c0-0.2-0.1-0.3-0.2-0.5c-0.2-0.2-0.5-0.4-0.9-0.4L130,60.1L130,60.1z"/>
		<path fill="#5A5B5E" d="M135.6,68.1v-9.3h1.3l1.7,4.9l0,0l1.7-4.9h1.3v9.3h-1.3v-5.7l0,0l-1.3,4h-0.7l-1.3-4l0,0v5.7H135.6z"/>
		<path fill="#5A5B5E" d="M143.6,68.1l2.1-9.3h1.1l2.1,9.3h-1.3l-0.4-2h-1.8l-0.4,2H143.6z M146.9,64.9l-0.7-3.4l0,0l-0.7,3.4H146.9
			z"/>
		<path fill="#5A5B5E" d="M151,68.1V60h-1.5v-1.3h4.4V60h-1.5v8.1H151z"/>
		<path fill="#5A5B5E" d="M155.8,68.1v-9.3h1.3v9.3H155.8z"/>
		<path fill="#5A5B5E" d="M164,65.5V66c0,0.3-0.1,0.6-0.2,0.8c-0.1,0.3-0.3,0.5-0.5,0.7c-0.2,0.2-0.4,0.4-0.7,0.5
			c-0.3,0.1-0.5,0.2-0.8,0.2c-0.3,0-0.5,0-0.8-0.1c-0.3-0.1-0.5-0.2-0.7-0.4c-0.2-0.2-0.4-0.4-0.5-0.7c-0.1-0.3-0.2-0.6-0.2-1.1
			v-5.1c0-0.3,0.1-0.6,0.2-0.9c0.1-0.3,0.3-0.5,0.4-0.7c0.2-0.2,0.4-0.3,0.7-0.5c0.3-0.2,0.6-0.2,0.9-0.2c0.6,0,1.1,0.2,1.5,0.6
			c0.2,0.2,0.3,0.4,0.5,0.7c0.1,0.3,0.2,0.6,0.2,0.9v0.5h-1.3V61c0-0.3-0.1-0.5-0.2-0.7c-0.1-0.2-0.3-0.3-0.6-0.3s-0.6,0.1-0.7,0.3
			s-0.2,0.5-0.2,0.8v4.8c0,0.3,0.1,0.5,0.2,0.7s0.3,0.3,0.6,0.3c0.1,0,0.2,0,0.3,0s0.2-0.1,0.3-0.2c0.1-0.1,0.1-0.2,0.2-0.3
			c0.1-0.1,0.1-0.3,0.1-0.5v-0.5h1.3V65.5z"/>
		<path fill="#5A5B5E" d="M170.8,61.5h-1.3v-0.3c0-0.3-0.1-0.6-0.2-0.8c-0.1-0.2-0.4-0.3-0.7-0.3c-0.2,0-0.3,0-0.4,0.1
			c-0.1,0.1-0.2,0.2-0.3,0.3c-0.1,0.1-0.1,0.2-0.1,0.4c0,0.1,0,0.3,0,0.5c0,0.2,0,0.3,0,0.5c0,0.1,0,0.2,0.1,0.3
			c0.1,0.1,0.1,0.2,0.2,0.2s0.2,0.1,0.4,0.2l1,0.4c0.3,0.1,0.5,0.2,0.7,0.4c0.2,0.2,0.3,0.3,0.4,0.5c0.1,0.2,0.2,0.4,0.2,0.7
			s0.1,0.6,0.1,0.9c0,0.4,0,0.8-0.1,1.1c-0.1,0.3-0.2,0.6-0.4,0.9c-0.2,0.2-0.4,0.4-0.7,0.6c-0.3,0.1-0.7,0.2-1.1,0.2
			c-0.3,0-0.6-0.1-0.9-0.2c-0.3-0.1-0.5-0.3-0.7-0.5c-0.2-0.2-0.4-0.4-0.5-0.7c-0.1-0.3-0.2-0.6-0.2-0.9v-0.5h1.3v0.4
			c0,0.2,0.1,0.5,0.2,0.7c0.1,0.2,0.4,0.3,0.7,0.3c0.2,0,0.4,0,0.5-0.1c0.1-0.1,0.2-0.2,0.3-0.3c0.1-0.1,0.1-0.3,0.1-0.4
			c0-0.2,0-0.4,0-0.6s0-0.4,0-0.6c0-0.2-0.1-0.3-0.1-0.4c-0.1-0.1-0.1-0.2-0.2-0.2c-0.1-0.1-0.2-0.1-0.4-0.2l-1-0.4
			c-0.6-0.2-1-0.5-1.2-0.9c-0.2-0.4-0.3-0.9-0.3-1.5c0-0.4,0-0.7,0.1-1c0.1-0.3,0.2-0.6,0.4-0.8c0.2-0.2,0.4-0.4,0.7-0.5
			c0.3-0.1,0.6-0.2,1-0.2c0.3,0,0.6,0.1,0.9,0.2c0.3,0.1,0.5,0.3,0.7,0.5c0.4,0.4,0.6,0.9,0.6,1.4v0.6H170.8z"/>
		<path fill="#5A5B5E" d="M176.2,68.1l2.1-9.3h1.1l2.1,9.3h-1.3l-0.4-2H178l-0.4,2H176.2z M179.5,64.9l-0.7-3.4l0,0l-0.7,3.4H179.5z
			"/>
		<path fill="#5A5B5E" d="M183.4,68.1v-9.3h1.3l2,5.6l0,0v-5.6h1.3v9.3h-1.3l-2-5.6l0,0v5.6H183.4z"/>
		<path fill="#5A5B5E" d="M190.6,68.1v-9.3h2c0.8,0,1.4,0.2,1.8,0.6c0.4,0.4,0.6,1,0.6,1.8v4.4c0,0.9-0.2,1.5-0.6,1.9
			c-0.4,0.4-1,0.6-1.8,0.6H190.6z M192,60.1v6.8h0.6c0.4,0,0.6-0.1,0.8-0.3s0.2-0.5,0.2-0.9v-4.5c0-0.4-0.1-0.7-0.2-0.9
			S193,60,192.6,60L192,60.1L192,60.1z"/>
		<path fill="#5A5B5E" d="M68.7,81.3V72h4v1.3H70V76h2.3v1.3H70v4H68.7z"/>
		<path fill="#5A5B5E" d="M74.8,74.1c0-0.4,0.1-0.7,0.2-1s0.3-0.5,0.5-0.7c0.2-0.2,0.4-0.3,0.7-0.4c0.3-0.1,0.5-0.1,0.8-0.1
			s0.5,0,0.8,0.1c0.3,0.1,0.5,0.2,0.7,0.4c0.2,0.2,0.4,0.4,0.5,0.7s0.2,0.6,0.2,1V79c0,0.4-0.1,0.7-0.2,1s-0.3,0.5-0.5,0.7
			c-0.2,0.2-0.5,0.3-0.7,0.4c-0.2,0.1-0.5,0.1-0.8,0.1s-0.5,0-0.8-0.1c-0.3-0.1-0.5-0.2-0.7-0.4c-0.2-0.2-0.4-0.4-0.5-0.7
			s-0.2-0.6-0.2-1V74.1z M76.1,79.1c0,0.3,0.1,0.6,0.3,0.7C76.6,80,76.8,80,77,80s0.5-0.1,0.6-0.2c0.2-0.2,0.3-0.4,0.3-0.7v-4.9
			c0-0.3-0.1-0.6-0.3-0.7c-0.2-0.2-0.4-0.2-0.6-0.2s-0.5,0.1-0.6,0.2c-0.2,0.2-0.3,0.4-0.3,0.7V79.1z"/>
		<path fill="#5A5B5E" d="M81.7,81.3V72h2.2c1.6,0,2.4,0.9,2.4,2.7c0,0.6-0.1,1-0.3,1.4c-0.2,0.4-0.5,0.7-0.9,0.9l1.4,4.3h-1.4
			l-1.2-4h-0.8v4H81.7z M83.1,73.2v2.9h0.8c0.2,0,0.4,0,0.6-0.1c0.1-0.1,0.2-0.2,0.3-0.3c0.1-0.1,0.1-0.3,0.1-0.5c0-0.2,0-0.4,0-0.6
			s0-0.4,0-0.6s-0.1-0.3-0.2-0.5c-0.2-0.2-0.5-0.4-0.9-0.4h-0.7V73.2z"/>
		<path fill="#5A5B5E" d="M88.7,81.3V72h4v1.3H90V76h2.3v1.3H90V80h2.7v1.3H88.7z"/>
		<path fill="#5A5B5E" d="M94.8,81.3V72h1.3l2,5.6l0,0V72h1.3v9.3h-1.3l-2-5.6l0,0v5.6H94.8z"/>
		<path fill="#5A5B5E" d="M106.3,74.6H105v-0.3c0-0.3-0.1-0.6-0.2-0.8c-0.1-0.2-0.4-0.3-0.7-0.3c-0.2,0-0.3,0-0.4,0.1
			s-0.2,0.2-0.3,0.3c-0.1,0.1-0.1,0.2-0.1,0.4c0,0.1,0,0.3,0,0.5s0,0.3,0,0.5c0,0.1,0,0.2,0.1,0.3s0.1,0.2,0.2,0.2
			c0.1,0.1,0.2,0.1,0.4,0.2l1,0.4c0.3,0.1,0.5,0.2,0.7,0.4c0.2,0.2,0.3,0.3,0.4,0.5s0.2,0.4,0.2,0.7c0,0.3,0.1,0.6,0.1,0.9
			c0,0.4,0,0.8-0.1,1.1c-0.1,0.3-0.2,0.6-0.4,0.9c-0.2,0.2-0.4,0.4-0.7,0.6c-0.3,0.1-0.7,0.2-1.1,0.2c-0.3,0-0.6-0.1-0.9-0.2
			c-0.3-0.1-0.5-0.3-0.7-0.5c-0.2-0.2-0.4-0.4-0.5-0.7c-0.1-0.3-0.2-0.6-0.2-0.9v-0.5h1.3V79c0,0.2,0.1,0.5,0.2,0.7
			c0.1,0.2,0.4,0.3,0.7,0.3c0.2,0,0.4,0,0.5-0.1c0.1-0.1,0.2-0.2,0.3-0.3c0.1-0.1,0.1-0.3,0.1-0.4c0-0.1,0-0.4,0-0.6s0-0.4,0-0.6
			s-0.1-0.3-0.1-0.4c-0.1-0.1-0.1-0.2-0.2-0.2c-0.1-0.1-0.2-0.1-0.4-0.2l-1-0.4c-0.6-0.2-1-0.5-1.2-0.9c-0.2-0.4-0.3-0.9-0.3-1.5
			c0-0.3,0-0.7,0.1-1c0.1-0.3,0.2-0.6,0.4-0.8c0.2-0.2,0.4-0.4,0.7-0.5c0.3-0.1,0.6-0.2,1-0.2c0.3,0,0.6,0.1,0.9,0.2
			c0.3,0.1,0.5,0.3,0.7,0.5c0.4,0.4,0.6,0.9,0.6,1.4v0.6H106.3z"/>
		<path fill="#5A5B5E" d="M108.6,81.3V72h1.3v9.3H108.6z"/>
		<path fill="#5A5B5E" d="M116.8,78.6v0.6c0,0.3-0.1,0.6-0.2,0.8s-0.3,0.5-0.5,0.7c-0.2,0.2-0.4,0.4-0.7,0.5
			c-0.3,0.1-0.5,0.2-0.8,0.2c-0.3,0-0.5,0-0.8-0.1c-0.3-0.1-0.5-0.2-0.7-0.4c-0.2-0.2-0.4-0.4-0.5-0.7c-0.1-0.3-0.2-0.6-0.2-1.1V74
			c0-0.3,0.1-0.6,0.2-0.9s0.3-0.5,0.4-0.7c0.2-0.2,0.4-0.3,0.7-0.5c0.3-0.2,0.6-0.2,0.9-0.2c0.6,0,1.1,0.2,1.5,0.6
			c0.2,0.2,0.3,0.4,0.5,0.7c0.2,0.3,0.2,0.6,0.2,0.9v0.5h-1.3V74c0-0.3-0.1-0.5-0.2-0.7c-0.1-0.2-0.3-0.3-0.6-0.3
			c-0.3,0-0.6,0.1-0.7,0.3c-0.1,0.2-0.2,0.5-0.2,0.8V79c0,0.3,0.1,0.5,0.2,0.7c0.1,0.2,0.3,0.3,0.6,0.3c0.1,0,0.2,0,0.3,0
			s0.2-0.1,0.3-0.2s0.1-0.2,0.2-0.3c0.1-0.1,0.1-0.3,0.1-0.5v-0.5L116.8,78.6L116.8,78.6z"/>
		<path fill="#5A5B5E" d="M127.3,74.6H126v-0.3c0-0.3-0.1-0.6-0.2-0.8c-0.1-0.2-0.4-0.3-0.7-0.3c-0.2,0-0.3,0-0.4,0.1
			s-0.2,0.2-0.3,0.3c-0.1,0.1-0.1,0.2-0.1,0.4c0,0.1,0,0.3,0,0.5s0,0.3,0,0.5c0,0.1,0,0.2,0.1,0.3s0.1,0.2,0.2,0.2
			c0.1,0.1,0.2,0.1,0.4,0.2l1,0.4c0.3,0.1,0.5,0.2,0.7,0.4c0.2,0.2,0.3,0.3,0.4,0.5s0.2,0.4,0.2,0.7c0,0.3,0.1,0.6,0.1,0.9
			c0,0.4,0,0.8-0.1,1.1c-0.1,0.3-0.2,0.6-0.4,0.9c-0.2,0.2-0.4,0.4-0.7,0.6c-0.3,0.1-0.7,0.2-1.1,0.2c-0.3,0-0.6-0.1-0.9-0.2
			c-0.3-0.1-0.5-0.3-0.7-0.5c-0.2-0.2-0.4-0.4-0.5-0.7c-0.1-0.3-0.2-0.6-0.2-0.9v-0.5h1.3V79c0,0.2,0.1,0.5,0.2,0.7
			c0.1,0.2,0.4,0.3,0.7,0.3c0.2,0,0.4,0,0.5-0.1c0.1-0.1,0.2-0.2,0.3-0.3c0.1-0.1,0.1-0.3,0.1-0.4c0-0.1,0-0.4,0-0.6s0-0.4,0-0.6
			s-0.1-0.3-0.1-0.4c-0.1-0.1-0.1-0.2-0.2-0.2c-0.1-0.1-0.2-0.1-0.4-0.2l-1-0.4c-0.6-0.2-1-0.5-1.2-0.9c-0.2-0.4-0.3-0.9-0.3-1.5
			c0-0.3,0-0.7,0.1-1c0.1-0.3,0.2-0.6,0.4-0.8c0.2-0.2,0.4-0.4,0.7-0.5c0.3-0.1,0.6-0.2,1-0.2c0.3,0,0.6,0.1,0.9,0.2
			c0.3,0.1,0.5,0.3,0.7,0.5c0.4,0.4,0.6,0.9,0.6,1.4v0.6H127.3z"/>
		<path fill="#5A5B5E" d="M133.9,78.6v0.6c0,0.3-0.1,0.6-0.2,0.8s-0.3,0.5-0.5,0.7c-0.2,0.2-0.4,0.4-0.7,0.5
			c-0.3,0.1-0.5,0.2-0.8,0.2c-0.3,0-0.5,0-0.8-0.1s-0.5-0.2-0.7-0.4c-0.2-0.2-0.4-0.4-0.5-0.7c-0.1-0.3-0.2-0.6-0.2-1.1V74
			c0-0.3,0.1-0.6,0.2-0.9s0.3-0.5,0.4-0.7c0.2-0.2,0.4-0.3,0.7-0.5c0.3-0.2,0.6-0.2,0.9-0.2c0.6,0,1.1,0.2,1.5,0.6
			c0.2,0.2,0.3,0.4,0.5,0.7c0.2,0.3,0.2,0.6,0.2,0.9v0.5h-1.3V74c0-0.3-0.1-0.5-0.2-0.7s-0.3-0.3-0.6-0.3c-0.3,0-0.6,0.1-0.7,0.3
			s-0.2,0.5-0.2,0.8V79c0,0.3,0.1,0.5,0.2,0.7c0.1,0.2,0.3,0.3,0.6,0.3c0.1,0,0.2,0,0.3,0c0.1,0,0.2-0.1,0.3-0.2
			c0.1-0.1,0.1-0.2,0.2-0.3c0.1-0.1,0.1-0.3,0.1-0.5v-0.5L133.9,78.6L133.9,78.6z"/>
		<path fill="#5A5B5E" d="M136.3,81.3V72h1.3v9.3H136.3z"/>
		<path fill="#5A5B5E" d="M140.3,81.3V72h4v1.3h-2.7V76h2.3v1.3h-2.3V80h2.7v1.3H140.3z"/>
		<path fill="#5A5B5E" d="M146.4,81.3V72h1.3l2,5.6l0,0V72h1.3v9.3h-1.3l-2-5.6l0,0v5.6H146.4z"/>
		<path fill="#5A5B5E" d="M157.8,78.6v0.6c0,0.3-0.1,0.6-0.2,0.8s-0.3,0.5-0.5,0.7c-0.2,0.2-0.4,0.4-0.7,0.5
			c-0.3,0.1-0.5,0.2-0.8,0.2c-0.3,0-0.5,0-0.8-0.1c-0.3-0.1-0.5-0.2-0.7-0.4c-0.2-0.2-0.4-0.4-0.5-0.7c-0.1-0.3-0.2-0.6-0.2-1.1V74
			c0-0.3,0.1-0.6,0.2-0.9s0.3-0.5,0.4-0.7c0.2-0.2,0.4-0.3,0.7-0.5c0.3-0.2,0.6-0.2,0.9-0.2c0.6,0,1.1,0.2,1.5,0.6
			c0.2,0.2,0.3,0.4,0.5,0.7c0.2,0.3,0.2,0.6,0.2,0.9v0.5h-1.3V74c0-0.3-0.1-0.5-0.2-0.7c-0.1-0.2-0.3-0.3-0.6-0.3
			c-0.3,0-0.6,0.1-0.7,0.3c-0.1,0.2-0.2,0.5-0.2,0.8V79c0,0.3,0.1,0.5,0.2,0.7c0.1,0.2,0.3,0.3,0.6,0.3c0.1,0,0.2,0,0.3,0
			s0.2-0.1,0.3-0.2s0.1-0.2,0.2-0.3c0.1-0.1,0.1-0.3,0.1-0.5v-0.5L157.8,78.6L157.8,78.6z"/>
		<path fill="#5A5B5E" d="M160.2,81.3V72h4v1.3h-2.7V76h2.3v1.3h-2.3V80h2.7v1.3H160.2z"/>
	</g>
</g>
</svg>
